<svg xmlns="http://www.w3.org/2000/svg" viewBox="0 0 800 500">
  <defs>
    <radialGradient id="bgGrad" cx="50%" cy="60%" r="70%">
      <stop offset="0%" stop-color="#1a2a5e"/>
      <stop offset="60%" stop-color="#0d1b3e"/>
      <stop offset="100%" stop-color="#060d20"/>
    </radialGradient>
    <filter id="glow">
      <feGaussianBlur stdDeviation="1.2" result="blur"/>
      <feMerge><feMergeNode in="blur"/><feMergeNode in="SourceGraphic"/></feMerge>
    </filter>
  </defs>

  <!-- Background -->
  <rect width="800" height="500" fill="url(#bgGrad)"/>

  <!-- Stars -->
  <g fill="white" opacity="0.7">
    <circle cx="45" cy="30" r="0.8"/><circle cx="120" cy="18" r="0.6"/><circle cx="210" cy="42" r="1"/>
    <circle cx="310" cy="12" r="0.7"/><circle cx="390" cy="28" r="0.9"/><circle cx="480" cy="8" r="0.6"/>
    <circle cx="560" cy="35" r="1.1"/><circle cx="650" cy="15" r="0.7"/><circle cx="740" cy="40" r="0.8"/>
    <circle cx="780" cy="22" r="0.6"/><circle cx="85" cy="65" r="0.5"/><circle cx="175" cy="75" r="0.8"/>
    <circle cx="270" cy="55" r="0.6"/><circle cx="440" cy="68" r="0.7"/><circle cx="620" cy="58" r="0.9"/>
    <circle cx="710" cy="72" r="0.5"/><circle cx="760" cy="60" r="0.7"/><circle cx="30" cy="90" r="0.9"/>
    <circle cx="500" cy="50" r="0.6"/><circle cx="580" cy="80" r="0.8"/>
  </g>

  <!-- Far horizon lines -->
  <g stroke="#4a6fa5" stroke-width="0.5" fill="none" opacity="0.35" filter="url(#glow)">
    <polyline points="0,320 40,315 80,310 120,306 160,302 200,297 240,292 280,296 320,290 360,284 400,288 440,282 480,287 520,291 560,296 600,300 640,305 680,309 720,313 760,317 800,320"/>
    <polyline points="0,328 40,322 80,317 120,312 160,307 200,301 240,294 280,299 320,293 360,286 400,290 440,283 480,289 520,294 560,299 600,303 640,308 680,313 720,317 760,322 800,327"/>
    <polyline points="0,335 30,328 70,320 110,313 150,306 190,298 230,290 270,295 310,287 350,278 390,283 430,275 470,281 510,288 550,294 590,299 630,305 670,311 710,317 750,323 800,329"/>
    <polyline points="0,342 30,334 70,325 110,317 150,309 190,300 230,291 270,297 310,288 350,278 390,284 430,275 470,281 510,288 550,295 590,301 630,307 670,313 710,320 750,326 800,333"/>
  </g>

  <!-- Mid mountain range -->
  <g stroke="#6b8ec4" stroke-width="0.7" fill="none" opacity="0.55" filter="url(#glow)">
    <polyline points="0,400 30,388 60,373 90,355 115,337 135,318 150,302 165,288 178,276 190,265 200,256 210,248 220,244 230,248 240,255 250,264 260,274 270,285 282,298 295,313 310,330 328,349 348,368 370,385 395,398 420,408 450,418 480,425 510,430 540,428 570,423 600,418 630,415 660,412 690,410 720,408 750,407 780,406 800,405"/>
    <polyline points="0,410 30,397 60,381 90,362 115,343 135,323 150,307 165,292 178,280 190,269 200,260 210,252 220,247 230,252 240,259 250,268 260,278 270,290 282,303 295,318 310,335 328,355 348,374 370,391 395,404 420,414 450,424 480,431 510,436 540,434 570,429 600,424 630,420 660,417 690,415 720,413 750,412 780,411 800,410"/>
    <polyline points="400,405 430,395 460,382 490,367 520,350 548,332 570,314 588,297 603,281 615,268 625,257 632,249 637,244 643,241 650,244 658,251 667,260 677,272 688,286 700,302 713,320 727,340 742,360 758,380 773,396 787,408 800,416"/>
    <polyline points="400,415 430,404 460,390 490,374 520,356 548,337 570,318 588,301 603,285 615,271 625,260 632,252 637,246 643,243 650,246 658,253 667,262 677,274 688,289 700,305 713,323 727,344 742,364 758,385 773,402 787,415 800,424"/>
  </g>

  <!-- Foreground mountain peaks (brightest) -->
  <g stroke="#a0bce0" stroke-width="1" fill="none" opacity="0.8" filter="url(#glow)">
    <polyline points="0,460 20,452 40,441 60,428 80,413 100,396 118,378 133,360 145,342 155,324 163,307 169,292 174,279 178,267 181,257 183,249 185,243 187,239 189,237 191,236 193,237 195,240 198,245 201,252 205,260 210,270 216,281 223,294 231,308 240,323 251,339 263,356 277,373 293,390 311,406 331,420 353,432 377,442 402,450 427,456 453,460 478,463 504,464 530,463 555,460 579,456 602,450 624,443 644,435 663,427 681,419 697,412 712,406 726,400 738,396 749,393 758,391 765,390 771,391 776,393 780,397 784,402 788,408 792,415 796,422 800,430"/>
    <polyline points="0,468 20,460 40,448 60,435 80,419 100,402 118,384 133,365 145,347 155,329 163,311 169,296 174,282 178,270 181,260 183,252 185,245 187,240 189,238 191,237 193,238 195,241 198,247 201,254 205,262 210,272 216,283 223,296 231,310 240,325 251,342 263,359 277,376 293,393 311,409 331,423 353,434 377,445 402,452 427,458 453,462 478,465 504,466 530,465 555,462 579,458 602,452 624,445 644,437 663,429 681,421 697,414 712,408 726,402 738,398 749,395 758,393 765,392 771,393 776,395 780,399 784,404 788,410 792,417 796,424 800,432"/>
    <polyline points="0,475 20,467 50,453 80,436 110,417 140,397 165,376 185,356 200,337 212,319 220,303 226,289 230,277 233,267 235,259 237,253 239,249 241,247 243,247 245,249 248,253 251,259 255,267 260,277 266,289 273,302 281,317 291,334 302,352 315,370 330,388 347,405 366,420 387,433 410,444 433,452 458,458 483,462 507,464 531,463 554,460 576,455 597,449 617,442 635,434 652,426 667,418 681,411 694,405 706,400 717,396 726,393 734,392 741,392 747,394 752,398 757,403 762,409 767,416 772,424 777,432 782,440 787,448 793,456 800,464"/>
  </g>

  <!-- Vertical grid lines -->
  <g stroke="#7a9ec8" stroke-width="0.4" fill="none" opacity="0.2">
    <line x1="80" y1="260" x2="80" y2="500"/>
    <line x1="160" y1="240" x2="160" y2="500"/>
    <line x1="240" y1="248" x2="240" y2="500"/>
    <line x1="320" y1="285" x2="320" y2="500"/>
    <line x1="400" y1="236" x2="400" y2="500"/>
    <line x1="480" y1="290" x2="480" y2="500"/>
    <line x1="560" y1="300" x2="560" y2="500"/>
    <line x1="640" y1="330" x2="640" y2="500"/>
    <line x1="720" y1="395" x2="720" y2="500"/>
  </g>

  <!-- Ridge highlight dots -->
  <g fill="white" opacity="0.7">
    <circle cx="191" cy="236" r="1.8"/>
    <circle cx="400" cy="243" r="2.2"/>
    <circle cx="643" cy="241" r="1.8"/>
  </g>
</svg>
