<svg xmlns="http://www.w3.org/2000/svg" viewBox="0 0 800 450">
  <defs>
    <linearGradient id="g" x1="0%" y1="0%" x2="100%" y2="100%">
      <stop offset="0%" stop-color="#4a2c0a"/>
      <stop offset="50%" stop-color="#7a4a1a"/>
      <stop offset="100%" stop-color="#a06020"/>
    </linearGradient>
  </defs>
  <rect width="800" height="450" fill="url(#g)"/>
  <!-- Notebook lines -->
  <g stroke="#f5d090" stroke-width="0.6" opacity="0.22">
    <line x1="0" y1="80" x2="800" y2="80"/><line x1="0" y1="120" x2="800" y2="120"/>
    <line x1="0" y1="160" x2="800" y2="160"/><line x1="0" y1="200" x2="800" y2="200"/>
    <line x1="0" y1="240" x2="800" y2="240"/><line x1="0" y1="280" x2="800" y2="280"/>
    <line x1="0" y1="320" x2="800" y2="320"/><line x1="0" y1="360" x2="800" y2="360"/>
    <line x1="0" y1="400" x2="800" y2="400"/>
  </g>
  <!-- Left margin line -->
  <line x1="120" y1="0" x2="120" y2="450" stroke="#f5d090" stroke-width="1.5" opacity="0.3"/>
  <!-- Scribble/annotation marks -->
  <g stroke="#fde68a" stroke-width="1.5" fill="none" opacity="0.4">
    <path d="M150,120 Q200,110 250,125 Q300,140 320,120"/>
    <path d="M150,200 Q180,190 220,200"/>
    <path d="M150,280 Q210,265 280,280 Q350,295 380,270"/>
    <circle cx="140" cy="320" r="5" fill="#fde68a" opacity="0.5"/>
    <line x1="155" y1="320" x2="300" y2="320" stroke-width="1"/>
  </g>
</svg>
